<svg width="147" height="36" viewBox="0 0 147 36" fill="none" xmlns="http://www.w3.org/2000/svg">
<path d="M48.3247 18.8173L48.8243 16.2487C48.8243 16.2487 44.977 15.1203 41.8457 17.2129V27.4883H45.1709V19.14C46.4959 18.1758 48.3247 18.8173 48.3247 18.8173Z" fill="#00425F"/>
<mask id="mask0_717_2742" style="mask-type:luminance" maskUnits="userSpaceOnUse" x="41" y="15" width="8" height="13">
<path fill-rule="evenodd" clip-rule="evenodd" d="M41.8457 17.2129C43.3523 16.2063 45.0247 15.945 46.3546 15.9452C47.7886 15.9452 48.8245 16.2489 48.8245 16.2489L48.3247 18.8175C48.3247 18.8175 46.4959 18.176 45.1709 19.14V27.4883H41.8457V17.2129Z" fill="white"/>
</mask>
<g mask="url(#mask0_717_2742)">
<path d="M-160.568 59.3359L307.699 59.3359L307.699 -539.708H-160.568L-160.568 59.3359Z" fill="#00425F"/>
</g>
<mask id="mask1_717_2742" style="mask-type:luminance" maskUnits="userSpaceOnUse" x="41" y="15" width="8" height="13">
<path fill-rule="evenodd" clip-rule="evenodd" d="M41.8457 17.2129C43.3523 16.2063 45.0245 15.9452 46.3546 15.9452C47.7886 15.9452 48.8245 16.2489 48.8245 16.2489L48.3247 18.8175C48.3247 18.8175 46.4959 18.176 45.1709 19.14V27.4883H41.8457V17.2129Z" fill="white"/>
</mask>
<g mask="url(#mask1_717_2742)">
<path d="M36.2715 32.5215H54.3994V10.9102H36.2715V32.5215Z" fill="#00425F"/>
</g>
<path d="M19.6582 13.3193L22.9818 12.7539V16.0957H26.2707V18.7683H22.9818V22.7538C22.9818 23.4328 23.1034 23.9717 23.352 24.3703C23.5978 24.775 24.0906 24.9756 24.8308 24.9756C25.1927 24.9756 25.5562 24.9442 25.9396 24.8777C26.3122 24.8101 26.6596 24.7232 26.9722 24.6095L27.4425 27.1128C27.0402 27.2687 26.5955 27.404 26.1053 27.5187C25.6135 27.6322 25.0097 27.6914 24.2963 27.6914C23.3894 27.6914 22.6399 27.572 22.0439 27.3352C21.4509 27.0983 20.9742 26.766 20.6187 26.3419C20.2633 25.9216 20.0134 25.4057 19.8731 24.8017C19.7303 24.1988 19.6582 23.5329 19.6582 22.7985V13.3193Z" fill="#00425F"/>
<mask id="mask2_717_2742" style="mask-type:luminance" maskUnits="userSpaceOnUse" x="19" y="12" width="9" height="16">
<path fill-rule="evenodd" clip-rule="evenodd" d="M19.6582 13.3193L22.9818 12.7539V16.0957H26.2707V18.7683H22.9818V22.7538C22.9818 23.433 23.1034 23.9717 23.3518 24.3703C23.5976 24.7752 24.0904 24.9756 24.8306 24.9756C25.1925 24.9756 25.5558 24.9442 25.9394 24.8777C26.312 24.8101 26.6596 24.7232 26.9722 24.6097L27.4423 27.1128C27.0402 27.2689 26.5953 27.4042 26.1051 27.5189C25.6133 27.6324 25.0095 27.6914 24.296 27.6914C23.3889 27.6914 22.6397 27.572 22.0439 27.3352C21.4507 27.0983 20.9737 26.766 20.6185 26.3421C20.2631 25.9216 20.0134 25.4057 19.8731 24.8017C19.7301 24.1988 19.6582 23.5331 19.6582 22.7985V13.3193Z" fill="white"/>
</mask>
<g mask="url(#mask2_717_2742)">
<path d="M-160.566 59.3359L307.701 59.3359L307.701 -539.708H-160.566L-160.566 59.3359Z" fill="#00425F"/>
</g>
<mask id="mask3_717_2742" style="mask-type:luminance" maskUnits="userSpaceOnUse" x="19" y="12" width="9" height="16">
<path fill-rule="evenodd" clip-rule="evenodd" d="M19.6582 13.3193L22.9818 12.7539V16.0957H26.2707V18.7683H22.9818V22.7538C22.9818 23.433 23.1034 23.9717 23.3518 24.3703C23.5976 24.7752 24.0904 24.9756 24.8306 24.9756C25.1925 24.9756 25.5558 24.9442 25.9394 24.8777C26.312 24.8101 26.6596 24.7232 26.9722 24.6097L27.4423 27.1128C27.0402 27.2689 26.5953 27.4042 26.1051 27.5189C25.6133 27.6324 25.0095 27.6914 24.296 27.6914C23.3889 27.6914 22.6397 27.572 22.0439 27.3352C21.4507 27.0983 20.9737 26.766 20.6185 26.3421C20.2631 25.9216 20.0134 25.4057 19.8731 24.8017C19.7301 24.1988 19.6582 23.5331 19.6582 22.7985V13.3193Z" fill="white"/>
</mask>
<g mask="url(#mask3_717_2742)">
<path d="M14.084 32.7246H33.0174V7.71892H14.084L14.084 32.7246Z" fill="#00425F"/>
</g>
<path d="M53.7472 25.1863C54.3551 25.1863 54.7852 25.1258 55.0405 25.0122C55.2941 24.8976 55.417 24.6729 55.417 24.3443C55.417 24.0845 55.2568 23.8586 54.9281 23.6665C54.5996 23.4708 54.1052 23.2534 53.4347 23.0056C52.9149 22.8183 52.4421 22.6252 52.0159 22.4258C51.5951 22.2229 51.2345 21.986 50.9366 21.7045C50.6398 21.4243 50.4101 21.0883 50.2444 20.6969C50.0788 20.3127 50.0002 19.8476 50.0002 19.299C50.0002 18.237 50.4101 17.3949 51.2264 16.7775C52.0439 16.1626 53.1636 15.8485 54.5928 15.8485C55.3076 15.8485 55.9915 15.9101 56.6461 16.0346C57.2994 16.1554 57.8218 16.2932 58.205 16.432L57.6266 18.9328C57.2393 18.8036 56.8185 18.6901 56.3656 18.591C55.9127 18.4897 55.4025 18.4364 54.8386 18.4364C53.798 18.4364 53.2769 18.7191 53.2769 19.2784C53.2769 19.4076 53.2997 19.5225 53.3451 19.6227C53.3904 19.7243 53.4788 19.8209 53.6097 19.9139C53.7472 20.0058 53.9263 20.1095 54.1586 20.216C54.3896 20.3283 54.6836 20.4442 55.0405 20.576C55.7657 20.8369 56.3682 21.0906 56.8439 21.3469C57.3207 21.6029 57.6948 21.8725 57.9714 22.1719C58.2465 22.4644 58.4417 22.7883 58.5511 23.1481C58.6608 23.5071 58.7181 23.9214 58.7181 24.3939C58.7181 25.5138 58.2825 26.3606 57.4156 26.9333C56.5445 27.5036 55.3128 27.791 53.7218 27.791C52.6824 27.791 51.8168 27.7077 51.1261 27.5326C50.4329 27.3622 49.9546 27.215 49.6875 27.1013L50.2444 24.4941C50.807 24.7091 51.3921 24.8758 51.9826 25.0017C52.581 25.1248 53.1636 25.1863 53.7472 25.1863Z" fill="#00425F"/>
<mask id="mask4_717_2742" style="mask-type:luminance" maskUnits="userSpaceOnUse" x="49" y="15" width="10" height="13">
<path fill-rule="evenodd" clip-rule="evenodd" d="M51.2264 16.7777C52.0441 16.1626 53.1636 15.8485 54.5928 15.8485C55.3078 15.8485 55.9917 15.9101 56.6463 16.0346C57.2994 16.1554 57.8218 16.293 58.2052 16.432L57.6268 18.9328C57.2393 18.8036 56.8187 18.6901 56.3656 18.591C55.9129 18.4895 55.4025 18.4366 54.8388 18.4366C53.798 18.4366 53.2771 18.7189 53.2771 19.2784C53.2771 19.4076 53.2997 19.5225 53.3451 19.6227C53.3907 19.7243 53.479 19.8209 53.61 19.9139C53.7472 20.0058 53.9265 20.1095 54.1588 20.216C54.3898 20.3282 54.6836 20.4444 55.0405 20.576C55.7659 20.8369 56.3684 21.0906 56.8439 21.3469C57.3209 21.6029 57.695 21.8723 57.9716 22.1719C58.2467 22.4644 58.4417 22.7881 58.5513 23.1481C58.661 23.5071 58.7181 23.9214 58.7181 24.3939C58.7181 25.5138 58.2825 26.3608 57.4158 26.9333C56.5447 27.5036 55.313 27.791 53.722 27.791C52.6826 27.791 51.817 27.7077 51.1264 27.5326C50.4329 27.3622 49.9548 27.215 49.6875 27.1013L50.2446 24.4941C50.8072 24.7093 51.3921 24.8758 51.9826 25.0017C52.581 25.1246 53.1636 25.1863 53.7472 25.1863C54.3551 25.1863 54.7854 25.126 55.0405 25.0122C55.2944 24.8976 55.4172 24.6729 55.4172 24.3443C55.4172 24.0845 55.257 23.8586 54.9283 23.6665C54.5996 23.4708 54.1052 23.2534 53.4347 23.0056C52.9149 22.8183 52.4423 22.6252 52.0159 22.4258C51.5953 22.2229 51.2345 21.986 50.9368 21.7045C50.64 21.4241 50.4103 21.0883 50.2446 20.6969C50.079 20.3125 50.0002 19.8476 50.0002 19.299C50.0002 18.2371 50.4103 17.3951 51.2264 16.7777Z" fill="white"/>
</mask>
<g mask="url(#mask4_717_2742)">
<path d="M-160.568 59.334L307.699 59.334L307.699 -539.71H-160.568L-160.568 59.334Z" fill="#00425F"/>
</g>
<mask id="mask5_717_2742" style="mask-type:luminance" maskUnits="userSpaceOnUse" x="49" y="15" width="10" height="13">
<path fill-rule="evenodd" clip-rule="evenodd" d="M51.2264 16.7777C52.0441 16.1626 53.1636 15.8485 54.5928 15.8485C55.3078 15.8485 55.9917 15.9101 56.6463 16.0346C57.2994 16.1554 57.8218 16.293 58.2052 16.432L57.6268 18.9328C57.2393 18.8036 56.8187 18.6901 56.3656 18.591C55.9129 18.4895 55.4025 18.4366 54.8388 18.4366C53.798 18.4366 53.2771 18.7189 53.2771 19.2784C53.2771 19.4076 53.2997 19.5225 53.3451 19.6227C53.3907 19.7243 53.479 19.8209 53.61 19.9139C53.7472 20.0058 53.9265 20.1095 54.1588 20.216C54.3898 20.3282 54.6836 20.4444 55.0405 20.576C55.7659 20.8369 56.3684 21.0906 56.8439 21.3469C57.3209 21.6029 57.695 21.8723 57.9716 22.1719C58.2467 22.4644 58.4417 22.7881 58.5513 23.1481C58.661 23.5071 58.7181 23.9214 58.7181 24.3939C58.7181 25.5138 58.2825 26.3608 57.4158 26.9333C56.5447 27.5036 55.313 27.791 53.722 27.791C52.6826 27.791 51.817 27.7077 51.1264 27.5326C50.4329 27.3622 49.9548 27.215 49.6875 27.1013L50.2446 24.4941C50.8072 24.7093 51.3921 24.8758 51.9826 25.0017C52.581 25.1246 53.1636 25.1863 53.7472 25.1863C54.3551 25.1863 54.7854 25.126 55.0405 25.0122C55.2944 24.8976 55.4172 24.6729 55.4172 24.3443C55.4172 24.0845 55.257 23.8586 54.9283 23.6665C54.5996 23.4708 54.1052 23.2534 53.4347 23.0056C52.9149 22.8183 52.4423 22.6252 52.0159 22.4258C51.5953 22.2229 51.2345 21.986 50.9368 21.7045C50.64 21.4241 50.4103 21.0883 50.2446 20.6969C50.079 20.3125 50.0002 19.8476 50.0002 19.299C50.0002 18.2371 50.4103 17.3951 51.2264 16.7777Z" fill="white"/>
</mask>
<g mask="url(#mask5_717_2742)">
<path d="M44.1133 32.8242H64.2933V10.8136H44.1133V32.8242Z" fill="#00425F"/>
</g>
<path d="M68.9609 20.9794C68.663 22.0717 68.349 23.159 68.0138 24.2342C67.6796 25.3132 67.3242 26.3982 66.9571 27.4902H64.3695C64.1009 26.8862 63.8084 26.1686 63.4958 25.3361C63.1803 24.5001 62.8586 23.5927 62.5205 22.6057C62.1864 21.6221 61.8446 20.5808 61.4944 19.479C61.1431 18.382 60.8025 17.2729 60.4766 16.1504H63.9793C64.0955 16.6663 64.2277 17.2331 64.3706 17.843C64.5123 18.4543 64.6619 19.0839 64.8183 19.7315C64.9746 20.3767 65.1415 21.0253 65.3124 21.6801C65.4848 22.335 65.6613 22.962 65.84 23.5651C66.0339 22.9332 66.2237 22.2879 66.4093 21.627C66.5923 20.9651 66.7727 20.315 66.9449 19.676C67.1147 19.038 67.2817 18.4183 67.4339 17.8215C67.5889 17.2256 67.7265 16.6663 67.8481 16.1504H70.254C70.3769 16.6663 70.5063 17.2256 70.6572 17.8215C70.8042 18.4183 70.9607 19.038 71.1264 19.676C71.2866 20.315 71.4616 20.9651 71.6366 21.627C71.8168 22.2879 72.0014 22.9332 72.1924 23.5651C72.3726 22.962 72.5518 22.335 72.732 21.6801C72.9124 21.0253 73.082 20.3767 73.237 19.7315C73.392 19.0839 73.5416 18.4543 73.686 17.843C73.8288 17.2331 73.9585 16.6663 74.0772 16.1504H77.5346C77.2061 17.2729 76.8681 18.382 76.5167 19.479C76.1626 20.5808 75.8246 21.6221 75.4867 22.6057C75.1539 23.5927 74.8254 24.5001 74.506 25.3361C74.1843 26.1686 73.8875 26.8862 73.6232 27.4902H71.0356C70.6613 26.3982 70.2981 25.3132 69.9401 24.2342C69.5833 23.159 69.26 22.0717 68.9609 20.9794Z" fill="#00425F"/>
<mask id="mask6_717_2742" style="mask-type:luminance" maskUnits="userSpaceOnUse" x="60" y="16" width="18" height="12">
<path fill-rule="evenodd" clip-rule="evenodd" d="M74.0772 16.1504H77.5346C77.2061 17.2729 76.8681 18.382 76.5165 19.4788C76.1626 20.5808 75.8246 21.6223 75.4865 22.6058C75.1539 23.5927 74.8254 24.5001 74.5058 25.3361C74.184 26.1686 73.8875 26.886 73.623 27.4902H71.0354C70.6613 26.3982 70.2981 25.313 69.9401 24.234C69.5833 23.159 69.26 22.0717 68.9609 20.9794C68.6628 22.0717 68.3488 23.159 68.0138 24.234C67.6796 25.313 67.3242 26.3982 66.9569 27.4902H64.3693C64.1007 26.886 63.8082 26.1686 63.4956 25.3361C63.1803 24.5001 62.8583 23.5927 62.5205 22.6058C62.1864 21.6223 61.8444 20.5808 61.4944 19.4788C61.1431 18.382 60.8025 17.2729 60.4766 16.1504H63.9791C64.0955 16.6663 64.2277 17.2329 64.3706 17.843C64.5123 18.4543 64.6617 19.0839 64.8183 19.7313C64.9744 20.3765 65.1415 21.0253 65.3124 21.6801C65.4848 22.335 65.6613 22.962 65.84 23.5651C66.0337 22.9332 66.2234 22.2877 66.4091 21.627C66.5921 20.9651 66.7727 20.315 66.9449 19.676C67.1145 19.0378 67.2815 18.4181 67.4339 17.8215C67.5889 17.2256 67.7265 16.6663 67.8479 16.1504H70.254C70.3767 16.6663 70.5063 17.2256 70.6572 17.8215C70.8042 18.4181 70.9607 19.0378 71.1262 19.676C71.2866 20.315 71.4614 20.9651 71.6366 21.627C71.8168 22.2877 72.0014 22.9332 72.1922 23.5651C72.3726 22.962 72.5515 22.335 72.732 21.6801C72.9124 21.0253 73.082 20.3765 73.237 19.7313C73.392 19.0839 73.5416 18.4543 73.6858 17.843C73.8288 17.2329 73.9585 16.6663 74.0772 16.1504Z" fill="white"/>
</mask>
<g mask="url(#mask6_717_2742)">
<path d="M-160.568 59.334L307.699 59.334L307.699 -539.71H-160.568L-160.568 59.334Z" fill="#00425F"/>
</g>
<mask id="mask7_717_2742" style="mask-type:luminance" maskUnits="userSpaceOnUse" x="60" y="16" width="18" height="12">
<path fill-rule="evenodd" clip-rule="evenodd" d="M74.0772 16.1504H77.5346C77.2061 17.2729 76.8681 18.382 76.5165 19.4788C76.1626 20.5808 75.8246 21.6223 75.4865 22.6058C75.1539 23.5927 74.8254 24.5001 74.5058 25.3361C74.184 26.1686 73.8875 26.886 73.623 27.4902H71.0354C70.6613 26.3982 70.2981 25.313 69.9401 24.234C69.5833 23.159 69.26 22.0717 68.9609 20.9794C68.6628 22.0717 68.3488 23.159 68.0138 24.234C67.6796 25.313 67.3242 26.3982 66.9569 27.4902H64.3693C64.1007 26.886 63.8082 26.1686 63.4956 25.3361C63.1803 24.5001 62.8583 23.5927 62.5205 22.6058C62.1864 21.6223 61.8444 20.5808 61.4944 19.4788C61.1431 18.382 60.8025 17.2729 60.4766 16.1504H63.9791C64.0955 16.6663 64.2277 17.2329 64.3706 17.843C64.5123 18.4543 64.6617 19.0839 64.8183 19.7313C64.9744 20.3765 65.1415 21.0253 65.3124 21.6801C65.4848 22.335 65.6613 22.962 65.84 23.5651C66.0337 22.9332 66.2234 22.2877 66.4091 21.627C66.5921 20.9651 66.7727 20.315 66.9449 19.676C67.1145 19.0378 67.2815 18.4181 67.4339 17.8215C67.5889 17.2256 67.7265 16.6663 67.8479 16.1504H70.254C70.3767 16.6663 70.5063 17.2256 70.6572 17.8215C70.8042 18.4181 70.9607 19.0378 71.1262 19.676C71.2866 20.315 71.4614 20.9651 71.6366 21.627C71.8168 22.2877 72.0014 22.9332 72.1922 23.5651C72.3726 22.962 72.5515 22.335 72.732 21.6801C72.9124 21.0253 73.082 20.3765 73.237 19.7313C73.392 19.0839 73.5416 18.4543 73.6858 17.843C73.8288 17.2329 73.9585 16.6663 74.0772 16.1504Z" fill="white"/>
</mask>
<g mask="url(#mask7_717_2742)">
<path d="M54.9023 32.5234H83.1096V11.1156L54.9023 11.1156V32.5234Z" fill="#00425F"/>
</g>
<path d="M79.8848 27.4863H83.2032V16.1489H79.8848V27.4863Z" fill="#00425F"/>
<mask id="mask8_717_2742" style="mask-type:luminance" maskUnits="userSpaceOnUse" x="79" y="16" width="5" height="12">
<path fill-rule="evenodd" clip-rule="evenodd" d="M79.8848 27.4863V16.1489H83.2034V27.4863H79.8848Z" fill="white"/>
</mask>
<g mask="url(#mask8_717_2742)">
<path d="M-160.568 59.334L307.699 59.334L307.699 -539.71H-160.568L-160.568 59.334Z" fill="#00425F"/>
</g>
<mask id="mask9_717_2742" style="mask-type:luminance" maskUnits="userSpaceOnUse" x="79" y="16" width="5" height="12">
<path fill-rule="evenodd" clip-rule="evenodd" d="M79.8848 27.4863V16.1489H83.2034V27.4863H79.8848Z" fill="white"/>
</mask>
<g mask="url(#mask9_717_2742)">
<path d="M74.3105 32.5195H88.7781V11.114H74.3105V32.5195Z" fill="#00425F"/>
</g>
<path d="M85.8438 13.3223L89.1648 12.7533V16.1553H92.4513V18.823H89.1648V22.8124C89.1648 23.4876 89.2877 24.0315 89.5321 24.4289C89.7766 24.8312 90.2721 25.033 91.0137 25.033C91.3731 25.033 91.7417 25.004 92.1184 24.9375C92.499 24.8722 92.8438 24.7793 93.1578 24.6669L93.6241 27.1679C93.2218 27.3271 92.7743 27.4626 92.2869 27.5784C91.7936 27.692 91.1968 27.75 90.4805 27.75C89.5723 27.75 88.8228 27.6318 88.2283 27.3924C87.6326 27.1593 87.1569 26.8295 86.8017 26.4017C86.4462 25.9813 86.1979 25.463 86.055 24.8626C85.9106 24.2574 85.8438 23.588 85.8438 22.8569V13.3223Z" fill="#00425F"/>
<mask id="mask10_717_2742" style="mask-type:luminance" maskUnits="userSpaceOnUse" x="85" y="12" width="9" height="16">
<path fill-rule="evenodd" clip-rule="evenodd" d="M85.8438 13.3223L89.1646 12.7533V16.1553H92.4511V18.823H89.1646V22.8124C89.1646 23.4876 89.2877 24.0313 89.5321 24.4289C89.7766 24.8312 90.2721 25.0328 91.0135 25.0328C91.3729 25.0328 91.7417 25.004 92.1184 24.9375C92.499 24.872 92.8438 24.7793 93.1576 24.6669L93.6239 27.1677C93.2218 27.3271 92.7741 27.4626 92.2869 27.5784C91.7936 27.692 91.1968 27.75 90.4805 27.75C89.5723 27.75 88.8226 27.6318 88.2283 27.3924C87.6324 27.1591 87.1569 26.8295 86.8017 26.4019C86.4462 25.9813 86.1979 25.4632 86.0548 24.8626C85.9106 24.2574 85.8438 23.5878 85.8438 22.8571V13.3223Z" fill="white"/>
</mask>
<g mask="url(#mask10_717_2742)">
<path d="M-160.566 59.3359L307.701 59.3359L307.701 -539.708H-160.566L-160.566 59.3359Z" fill="#00425F"/>
</g>
<mask id="mask11_717_2742" style="mask-type:luminance" maskUnits="userSpaceOnUse" x="85" y="12" width="9" height="16">
<path fill-rule="evenodd" clip-rule="evenodd" d="M85.8438 13.3223L89.1646 12.7533V16.1553H92.4511V18.823H89.1646V22.8124C89.1646 23.4876 89.2877 24.0313 89.5321 24.4289C89.7766 24.8312 90.2721 25.0328 91.0135 25.0328C91.3729 25.0328 91.7417 25.004 92.1184 24.9375C92.499 24.872 92.8438 24.7793 93.1576 24.6669L93.6239 27.1677C93.2218 27.3271 92.7741 27.4626 92.2869 27.5784C91.7936 27.692 91.1968 27.75 90.4805 27.75C89.5723 27.75 88.8226 27.6318 88.2283 27.3924C87.6324 27.1591 87.1569 26.8295 86.8017 26.4019C86.4462 25.9813 86.1979 25.4632 86.0548 24.8626C85.9106 24.2574 85.8438 23.5878 85.8438 22.8571V13.3223Z" fill="white"/>
</mask>
<g mask="url(#mask11_717_2742)">
<path d="M80.2695 32.7832H99.1992V7.71828H80.2695V32.7832Z" fill="#00425F"/>
</g>
<path d="M94.7969 21.8235C94.7969 21.003 94.9347 20.2299 95.2098 19.5051C95.4849 18.7777 95.8818 18.1472 96.4016 17.607C96.9225 17.067 97.553 16.6416 98.2983 16.324C99.0398 16.0111 99.8868 15.8491 100.838 15.8491C101.462 15.8491 102.035 15.906 102.556 16.0122C103.077 16.1222 103.585 16.2758 104.072 16.4749L103.383 19.04C103.069 18.9263 102.728 18.8273 102.354 18.7379C101.983 18.6532 101.565 18.6087 101.105 18.6087C100.125 18.6087 99.3911 18.9045 98.9115 19.4941C98.4238 20.085 98.1861 20.8595 98.1861 21.8235C98.1861 22.8418 98.4119 23.6331 98.8689 24.1939C99.3177 24.7532 100.111 25.0348 101.24 25.0348C101.642 25.0348 102.071 24.9972 102.535 24.926C102.994 24.8534 103.418 24.7399 103.808 24.5805L104.273 27.2118C103.885 27.3701 103.404 27.503 102.825 27.62C102.242 27.734 101.605 27.793 100.907 27.793C99.8373 27.793 98.913 27.6359 98.142 27.3277C97.3702 27.0197 96.7327 26.5992 96.2357 26.0676C95.7348 25.5349 95.3742 24.9068 95.1432 24.1817C94.912 23.4557 94.7969 22.6681 94.7969 21.8235Z" fill="#00425F"/>
<mask id="mask12_717_2742" style="mask-type:luminance" maskUnits="userSpaceOnUse" x="94" y="15" width="11" height="13">
<path fill-rule="evenodd" clip-rule="evenodd" d="M98.2983 16.324C99.0398 16.0111 99.8868 15.8491 100.838 15.8491C101.462 15.8491 102.035 15.9058 102.556 16.012C103.077 16.1222 103.585 16.2756 104.072 16.4749L103.383 19.0398C103.069 18.9263 102.728 18.8273 102.354 18.7379C101.983 18.653 101.565 18.6085 101.105 18.6085C100.125 18.6085 99.3911 18.9045 98.9115 19.4941C98.4238 20.0848 98.1861 20.8593 98.1861 21.8235C98.1861 22.8418 98.4121 23.6331 98.8689 24.1939C99.3177 24.7532 100.111 25.0348 101.24 25.0348C101.642 25.0348 102.071 24.9972 102.535 24.926C102.994 24.8534 103.418 24.7399 103.807 24.5803L104.273 27.2118C103.885 27.3701 103.404 27.5028 102.824 27.62C102.242 27.7338 101.605 27.793 100.907 27.793C99.837 27.793 98.913 27.6357 98.142 27.3275C97.3702 27.0195 96.7327 26.5992 96.2355 26.0678C95.735 25.5349 95.3742 24.9068 95.1432 24.1817C94.912 23.4557 94.7969 22.6679 94.7969 21.8235C94.7969 21.003 94.9347 20.2299 95.2098 19.5051C95.4849 18.7777 95.8818 18.147 96.4014 17.6068C96.9225 17.0669 97.553 16.6416 98.2983 16.324Z" fill="white"/>
</mask>
<g mask="url(#mask12_717_2742)">
<path d="M-160.568 59.334L307.699 59.334L307.699 -539.71H-160.568L-160.568 59.334Z" fill="#00425F"/>
</g>
<mask id="mask13_717_2742" style="mask-type:luminance" maskUnits="userSpaceOnUse" x="94" y="15" width="11" height="13">
<path fill-rule="evenodd" clip-rule="evenodd" d="M98.2983 16.324C99.0398 16.0111 99.8868 15.8491 100.838 15.8491C101.462 15.8491 102.035 15.9058 102.556 16.012C103.077 16.1222 103.585 16.2756 104.072 16.4749L103.383 19.0398C103.069 18.9263 102.728 18.8273 102.354 18.7379C101.983 18.653 101.565 18.6085 101.105 18.6085C100.125 18.6085 99.3911 18.9045 98.9115 19.4941C98.4238 20.0848 98.1861 20.8593 98.1861 21.8235C98.1861 22.8418 98.4121 23.6331 98.8689 24.1939C99.3177 24.7532 100.111 25.0348 101.24 25.0348C101.642 25.0348 102.071 24.9972 102.535 24.926C102.994 24.8534 103.418 24.7399 103.807 24.5803L104.273 27.2118C103.885 27.3701 103.404 27.5028 102.824 27.62C102.242 27.7338 101.605 27.793 100.907 27.793C99.837 27.793 98.913 27.6357 98.142 27.3275C97.3702 27.0195 96.7327 26.5992 96.2355 26.0678C95.735 25.5349 95.3742 24.9068 95.1432 24.1817C94.912 23.4557 94.7969 22.6679 94.7969 21.8235C94.7969 21.003 94.9347 20.2299 95.2098 19.5051C95.4849 18.7777 95.8818 18.147 96.4014 17.6068C96.9225 17.0669 97.553 16.6416 98.2983 16.324Z" fill="white"/>
</mask>
<g mask="url(#mask13_717_2742)">
<path d="M89.2227 32.8262H109.847V10.8142H89.2227V32.8262Z" fill="#00425F"/>
</g>
<path d="M106.42 27.4863V13.317L109.742 12.7529V16.1961C109.964 16.1248 110.249 16.0559 110.601 15.9908C110.949 15.9267 111.289 15.8928 111.615 15.8928C112.565 15.8928 113.354 16.0197 113.988 16.2699C114.618 16.5212 115.127 16.8776 115.504 17.3378C115.886 17.7958 116.15 18.3442 116.31 18.9737C116.463 19.6078 116.54 20.3136 116.54 21.0892V27.4863H113.219V21.4745C113.219 20.4403 113.082 19.7082 112.808 19.2745C112.533 18.8479 112.023 18.6318 111.281 18.6318C110.979 18.6318 110.704 18.6573 110.442 18.7055C110.183 18.7563 109.949 18.8118 109.742 18.8686V27.4863H106.42Z" fill="#00425F"/>
<mask id="mask14_717_2742" style="mask-type:luminance" maskUnits="userSpaceOnUse" x="106" y="12" width="11" height="16">
<path fill-rule="evenodd" clip-rule="evenodd" d="M106.42 13.317L109.742 12.7529V16.1963C109.964 16.1248 110.249 16.056 110.601 15.9908C110.949 15.9267 111.289 15.893 111.615 15.893C112.565 15.893 113.355 16.0199 113.988 16.2699C114.618 16.5214 115.127 16.8777 115.504 17.338C115.886 17.7958 116.151 18.3442 116.31 18.9739C116.463 19.608 116.54 20.3136 116.54 21.0894V27.4863H113.22V21.4745C113.22 20.4405 113.082 19.7082 112.808 19.2745C112.533 18.8481 112.023 18.6318 111.281 18.6318C110.979 18.6318 110.704 18.6573 110.442 18.7057C110.183 18.7563 109.949 18.8118 109.742 18.8686V27.4863H106.42V13.317Z" fill="white"/>
</mask>
<g mask="url(#mask14_717_2742)">
<path d="M-160.568 59.334L307.699 59.334L307.699 -539.71H-160.568L-160.568 59.334Z" fill="#00425F"/>
</g>
<mask id="mask15_717_2742" style="mask-type:luminance" maskUnits="userSpaceOnUse" x="106" y="12" width="11" height="16">
<path fill-rule="evenodd" clip-rule="evenodd" d="M106.42 13.317L109.742 12.7529V16.1963C109.964 16.1248 110.249 16.056 110.601 15.9908C110.949 15.9267 111.289 15.893 111.615 15.893C112.565 15.893 113.355 16.0199 113.988 16.2699C114.618 16.5214 115.127 16.8777 115.504 17.338C115.886 17.7958 116.151 18.3442 116.31 18.9739C116.463 19.608 116.54 20.3136 116.54 21.0894V27.4863H113.22V21.4745C113.22 20.4405 113.082 19.7082 112.808 19.2745C112.533 18.8481 112.023 18.6318 111.281 18.6318C110.979 18.6318 110.704 18.6573 110.442 18.7057C110.183 18.7563 109.949 18.8118 109.742 18.8686V27.4863H106.42V13.317Z" fill="white"/>
</mask>
<g mask="url(#mask15_717_2742)">
<path d="M100.846 32.5195H122.115V7.71784H100.846V32.5195Z" fill="#00425F"/>
</g>
<path d="M6.25391 27.4902L6.25391 17.216C6.25391 17.216 7.92375 15.9269 11.5761 15.9269C14.8997 15.9269 16.7248 17.5327 16.7248 21.0665V27.4902H13.4051V21.0665C13.4051 18.8157 12.24 18.6598 11.2448 18.6598C10.2495 18.6598 9.58297 19.1382 9.58297 19.1382V27.4902H6.25391Z" fill="#00425F"/>
<mask id="mask16_717_2742" style="mask-type:luminance" maskUnits="userSpaceOnUse" x="6" y="15" width="11" height="13">
<path fill-rule="evenodd" clip-rule="evenodd" d="M6.25391 17.216C6.25391 17.216 7.92375 15.9269 11.5761 15.9269C14.8997 15.9269 16.7246 17.5325 16.7246 21.0667V27.4902H13.4051V21.0667C13.4051 18.8155 12.24 18.6598 11.2448 18.6598C10.2495 18.6598 9.58297 19.1384 9.58297 19.1384V27.4902H6.25391L6.25391 17.216Z" fill="white"/>
</mask>
<g mask="url(#mask16_717_2742)">
<path d="M-160.568 59.334L307.699 59.334L307.699 -539.71H-160.568L-160.568 59.334Z" fill="#00425F"/>
</g>
<mask id="mask17_717_2742" style="mask-type:luminance" maskUnits="userSpaceOnUse" x="6" y="15" width="11" height="13">
<path fill-rule="evenodd" clip-rule="evenodd" d="M6.25391 17.216C6.25391 17.216 7.92375 15.9269 11.5761 15.9269C14.8997 15.9269 16.7246 17.5325 16.7246 21.0667V27.4902H13.4051V21.0667C13.4051 18.8155 12.24 18.6598 11.2448 18.6598C10.2495 18.6598 9.58297 19.1384 9.58297 19.1384V27.4902H6.25391L6.25391 17.216Z" fill="white"/>
</mask>
<g mask="url(#mask17_717_2742)">
<path d="M0.679688 32.5234H22.2994V10.8922H0.679688L0.679688 32.5234Z" fill="#00425F"/>
</g>
<path d="M0 27.4902L0 13.3184L3.32365 12.7529L3.32365 27.4902H0Z" fill="#00425F"/>
<mask id="mask18_717_2742" style="mask-type:luminance" maskUnits="userSpaceOnUse" x="0" y="12" width="4" height="16">
<path fill-rule="evenodd" clip-rule="evenodd" d="M0 13.3186L3.32365 12.7529L3.32365 27.4902H0L0 13.3186Z" fill="white"/>
</mask>
<g mask="url(#mask18_717_2742)">
<path d="M-160.568 59.334L307.699 59.334V-539.71H-160.568L-160.568 59.334Z" fill="#00425F"/>
</g>
<mask id="mask19_717_2742" style="mask-type:luminance" maskUnits="userSpaceOnUse" x="0" y="12" width="4" height="16">
<path fill-rule="evenodd" clip-rule="evenodd" d="M0 13.3186L3.32365 12.7529L3.32365 27.4902H0L0 13.3186Z" fill="white"/>
</mask>
<g mask="url(#mask19_717_2742)">
<path d="M-5.57422 32.5234H8.89881L8.89881 7.71822H-5.57422L-5.57422 32.5234Z" fill="#00425F"/>
</g>
<path fill-rule="evenodd" clip-rule="evenodd" d="M31.77 22.6364H39.2457C39.5797 20.7056 39.2457 15.8949 34.2603 15.8949C30.9378 15.8949 28.6133 18.1396 28.6133 21.6747C28.6133 26.17 31.603 27.7734 34.9281 27.7734C37.2526 27.7734 38.9131 27.1366 38.9131 27.1366L38.5805 24.5645C38.5805 24.5645 36.9187 25.0443 35.2566 25.0443C31.9369 25.0443 31.77 22.6364 31.77 22.6364ZM31.77 20.3866C31.77 20.3866 31.9369 18.1395 34.0973 18.1395C36.2561 18.1395 36.4189 20.3866 36.4189 20.3866H31.77Z" fill="#00425F"/>
<mask id="mask20_717_2742" style="mask-type:luminance" maskUnits="userSpaceOnUse" x="28" y="15" width="12" height="13">
<path fill-rule="evenodd" clip-rule="evenodd" d="M28.6133 21.6746C28.6133 18.1394 30.9378 15.8947 34.2601 15.8947C39.2455 15.8947 39.5795 20.7056 39.2455 22.6362H31.77C31.77 22.6362 31.9369 25.0441 35.2564 25.0441C36.9185 25.0441 38.5803 24.5643 38.5803 24.5643L38.9129 27.1364C38.9129 27.1364 37.2524 27.7734 34.9279 27.7734C31.603 27.7734 28.6133 26.1701 28.6133 21.6746ZM34.097 18.1393C31.9369 18.1393 31.77 20.3866 31.77 20.3866H36.4189C36.4189 20.3866 36.2558 18.1393 34.097 18.1393Z" fill="white"/>
</mask>
<g mask="url(#mask20_717_2742)">
<path d="M-160.568 59.3359L307.699 59.3359L307.699 -539.708H-160.568L-160.568 59.3359Z" fill="#00425F"/>
</g>
<mask id="mask21_717_2742" style="mask-type:luminance" maskUnits="userSpaceOnUse" x="28" y="15" width="12" height="13">
<path fill-rule="evenodd" clip-rule="evenodd" d="M28.6133 21.6746C28.6133 18.1394 30.9378 15.8947 34.2601 15.8947C39.2455 15.8947 39.5795 20.7056 39.2455 22.6362H31.77C31.77 22.6362 31.9369 25.0441 35.2564 25.0441C36.9185 25.0441 38.5803 24.5643 38.5803 24.5643L38.9129 27.1364C38.9129 27.1364 37.2524 27.7734 34.9279 27.7734C31.603 27.7734 28.6133 26.1701 28.6133 21.6746ZM34.097 18.1393C31.9369 18.1393 31.77 20.3866 31.77 20.3866H36.4189C36.4189 20.3866 36.2558 18.1393 34.097 18.1393Z" fill="white"/>
</mask>
<g mask="url(#mask21_717_2742)">
<path d="M23.0391 32.8066H44.9136V10.8599L23.0391 10.8599V32.8066Z" fill="#00425F"/>
</g>
<mask id="mask22_717_2742" style="mask-type:luminance" maskUnits="userSpaceOnUse" x="120" y="10" width="23" height="26">
<path fill-rule="evenodd" clip-rule="evenodd" d="M120.943 12.7563C120.943 12.0712 130.499 10.5929 136.907 10.5929C139.686 10.5929 141.873 10.8709 142.433 11.612C145.318 15.0529 125.005 36.6402 123.312 35.9854C121.955 35.658 134.142 21.9176 132.111 16.3542C131.096 13.4123 120.943 13.7395 120.943 12.7563Z" fill="white"/>
</mask>
<g mask="url(#mask22_717_2742)">
<path d="M115.369 41.0332H148.288V5.55809H115.369V41.0332Z" fill="#EE312A"/>
</g>
<mask id="mask23_717_2742" style="mask-type:luminance" maskUnits="userSpaceOnUse" x="138" y="0" width="9" height="9">
<path fill-rule="evenodd" clip-rule="evenodd" d="M138.201 4.25133C138.201 1.90154 140.172 -6.00815e-05 142.6 -6.00815e-05C145.031 -6.00815e-05 146.999 1.90154 146.999 4.25133C146.999 6.60231 145.031 8.50391 142.6 8.50391C140.172 8.50391 138.201 6.60231 138.201 4.25133Z" fill="white"/>
</mask>
<g mask="url(#mask23_717_2742)">
<path d="M132.627 13.5371L152.574 13.5371V-5.03517H132.627V13.5371Z" fill="#EE312A"/>
</g>
</svg>
